<svg width="47" height="35" viewBox="0 0 47 35" fill="none" xmlns="http://www.w3.org/2000/svg">
<path d="M17.4906 0.231496C17.9652 0.237947 18.4374 0.419237 18.8069 0.798975C19.5214 1.53314 19.5051 2.732 18.7709 3.44646L4.74591 17.0952L18.3947 31.1202C19.1091 31.8543 19.0928 33.0532 18.3587 33.7677C17.6245 34.4821 16.4257 34.4658 15.7112 33.7317L0.756678 18.365C0.0422114 17.6308 0.0585104 16.432 0.792671 15.7175L16.1594 0.762982C16.5392 0.39343 17.0161 0.225044 17.4906 0.231496Z" fill="#292D32"/>
<path d="M2.54625 15.192L44.5814 15.7635C45.6054 15.7774 46.4431 16.6381 46.4292 17.6621C46.4152 18.6862 45.5545 19.5238 44.5305 19.5099L2.49531 18.9384C1.47129 18.9245 0.633638 18.0638 0.64756 17.0397C0.661482 16.0157 1.52222 15.178 2.54625 15.192Z" fill="#292D32"/>
</svg>
