<?xml version="1.0" standalone="no"?>
<!DOCTYPE svg PUBLIC "-//W3C//DTD SVG 20010904//EN"
 "http://www.w3.org/TR/2001/REC-SVG-20010904/DTD/svg10.dtd">
<svg version="1.0" xmlns="http://www.w3.org/2000/svg"
 width="800.000000pt" height="420.000000pt" viewBox="0 0 800.000000 420.000000"
 preserveAspectRatio="xMidYMid meet">

<g transform="translate(0.000000,420.000000) scale(0.100000,-0.100000)"
fill="#000000" stroke="none">
<path d="M3598 4013 c7 -3 16 -2 19 1 4 3 -2 6 -13 5 -11 0 -14 -3 -6 -6z"/>
<path d="M3476 3969 c-14 -11 -31 -30 -37 -42 -9 -20 -8 -20 9 2 11 13 30 32
43 42 13 10 21 19 18 19 -4 0 -18 -9 -33 -21z"/>
<path d="M3359 3902 c-7 -25 -8 -51 -4 -69 7 -24 10 -19 16 37 4 36 5 67 4 68
-2 2 -9 -14 -16 -36z"/>
<path d="M3413 3835 c0 -22 2 -30 4 -17 2 12 2 30 0 40 -3 9 -5 -1 -4 -23z"/>
<path d="M3763 3781 c-29 -69 -84 -104 -161 -104 -81 0 -120 23 -169 99 -6 11
-12 14 -12 8 -1 -6 9 -26 22 -45 85 -126 290 -97 337 47 18 54 6 50 -17 -5z"/>
<path d="M3375 3715 c9 -16 30 -43 46 -58 16 -15 29 -37 29 -47 0 -11 17 -35
38 -54 l37 -35 6 37 c6 37 6 36 8 -10 0 -26 6 -50 11 -53 6 -4 46 -3 90 1 l80
7 0 65 c0 61 3 69 33 101 l32 35 -33 -27 c-44 -35 -132 -60 -192 -55 -60 6
-135 44 -173 88 -28 32 -29 33 -12 5z"/>
<path d="M4765 3694 c-49 -6 -92 -12 -95 -13 -3 -2 33 -15 78 -31 77 -27 89
-29 155 -20 40 5 83 9 97 10 46 0 -1 -20 -50 -21 -97 -2 -98 -7 -18 -75 40
-33 87 -73 104 -87 l32 -27 -5 88 c-6 130 -4 126 -70 147 -129 41 -134 41
-228 29z"/>
<path d="M4320 3646 c-47 -6 -80 -14 -75 -17 6 -4 41 -16 78 -29 59 -19 79
-21 162 -15 53 4 97 11 100 15 5 8 -143 61 -165 59 -8 -1 -53 -7 -100 -13z"/>
<path d="M3870 3595 c-47 -6 -78 -14 -70 -18 111 -47 129 -50 249 -38 63 7
117 13 118 15 2 2 -29 15 -69 30 -79 28 -100 29 -228 11z"/>
<path d="M4526 3575 l-100 -10 126 -110 c70 -60 125 -112 123 -116 -3 -3 -32
-9 -66 -13 -34 -3 -64 -7 -65 -9 -1 -1 -14 -124 -29 -272 -30 -313 -53 -520
-61 -552 -9 -34 69 -66 145 -59 40 4 48 3 26 -3 -16 -5 -23 -9 -13 -10 9 0 48
-28 87 -60 67 -56 73 -59 113 -54 24 3 47 9 51 13 5 4 -22 31 -59 61 -37 29
-62 55 -55 57 6 2 9 7 7 10 -5 9 87 12 94 3 3 -3 33 -30 67 -60 l63 -53 60 7
c33 4 60 10 60 14 0 5 -32 33 -70 63 l-70 56 57 10 c58 10 58 10 96 -24 20
-19 40 -34 43 -34 8 0 -6 62 -17 76 -7 8 -30 7 -87 -2 -240 -41 -250 -42 -245
-23 4 12 -5 24 -28 38 -36 22 -49 20 -49 -8 0 -15 -18 -22 -107 -38 -60 -12
-109 -20 -110 -19 0 0 8 96 18 211 19 205 43 319 72 343 7 6 41 16 77 22 58
10 65 10 77 -6 7 -10 13 -32 14 -48 1 -30 1 -30 9 -6 4 14 8 18 9 10 3 -47 23
-90 41 -90 11 0 20 6 20 13 0 6 -22 107 -49 222 -35 149 -45 212 -37 217 6 4
29 8 51 9 85 1 83 7 -46 119 -67 58 -126 107 -133 110 -6 3 -56 1 -110 -5z
m181 -1131 c-3 -3 -12 -4 -19 -1 -8 3 -5 6 6 6 11 1 17 -2 13 -5z"/>
<path d="M3370 3540 c-49 -7 -47 -9 44 -40 62 -21 126 -27 126 -11 0 13 -89
61 -109 59 -9 0 -36 -4 -61 -8z"/>
<path d="M4063 3528 c-51 -6 -93 -13 -92 -17 0 -5 185 -168 242 -213 20 -16
30 -16 137 -3 63 8 116 15 118 15 1 0 -58 52 -132 115 -94 81 -141 115 -158
114 -13 -1 -65 -6 -115 -11z"/>
<path d="M3273 3523 c9 -2 23 -2 30 0 6 3 -1 5 -18 5 -16 0 -22 -2 -12 -5z"/>
<path d="M3178 3513 c12 -2 30 -2 40 0 9 3 -1 5 -23 4 -22 0 -30 -2 -17 -4z"/>
<path d="M3048 3498 c14 -14 143 -47 186 -48 38 0 29 8 -41 36 -63 26 -167 34
-145 12z"/>
<path d="M3610 3479 c-41 -5 -84 -10 -94 -11 -14 -2 12 -31 100 -108 66 -58
127 -111 136 -118 14 -11 37 -11 132 -1 64 7 116 15 116 18 0 4 -59 57 -130
119 -142 123 -126 116 -260 101z"/>
<path d="M3060 3436 c0 -8 5 -60 11 -114 l11 -98 32 30 31 31 3 -27 c4 -35
-166 -955 -181 -980 -10 -16 -9 -22 7 -34 29 -21 44 -17 50 14 3 15 22 117 42
227 40 216 70 301 114 321 14 7 48 15 76 19 l52 7 9 -38 c8 -35 10 -29 32 86
28 144 31 141 57 -49 12 -88 23 -135 32 -138 7 -3 15 -3 18 -1 2 3 -10 112
-27 243 -34 262 -35 254 31 256 95 3 94 5 -53 132 -112 96 -142 117 -168 117
l-31 0 7 -135 c6 -122 5 -135 -9 -129 -9 3 -16 9 -16 13 0 14 -21 176 -26 198
-7 34 -104 79 -104 49z"/>
<path d="M4461 2399 c-24 -5 -46 -10 -48 -13 -2 -2 27 -30 66 -61 l71 -57 56
8 57 9 -76 63 c-41 34 -77 62 -79 61 -1 -1 -23 -5 -47 -10z"/>
<path d="M4227 2360 c-20 -4 -40 -9 -42 -12 -3 -3 26 -31 65 -62 l71 -57 52 8
c29 4 50 13 48 18 -7 15 -135 115 -146 114 -5 -1 -27 -5 -48 -9z"/>
<path d="M3983 2323 c-18 -2 -33 -8 -33 -13 0 -5 31 -34 69 -65 l68 -55 53 10
c30 6 55 12 57 14 2 2 -28 29 -66 60 -70 56 -76 58 -148 49z"/>
<path d="M3233 2276 c-4 -7 -42 -19 -83 -27 -41 -7 -68 -14 -60 -16 8 -2 49 3
90 9 57 10 76 17 78 31 4 20 -14 23 -25 3z"/>
<path d="M3736 2281 l-30 -6 71 -61 71 -62 54 10 c29 5 57 10 62 11 4 2 -23
28 -61 60 -73 59 -91 65 -167 48z"/>
<path d="M3564 2254 c-7 -3 -7 -26 -1 -74 11 -79 4 -75 111 -57 l70 12 -75 62
c-72 61 -82 66 -105 57z"/>
<path d="M4930 2246 c0 -27 41 -66 68 -65 l27 1 -27 9 c-18 7 -29 20 -33 40
-7 29 -35 42 -35 15z"/>
<path d="M3780 2021 c0 -33 -1 -34 -100 -52 -83 -15 -109 -28 -55 -28 42 0
171 28 193 42 17 11 15 32 -4 51 -23 24 -34 19 -34 -13z"/>
<path d="M6475 1800 c8 -25 -10 -50 -37 -50 -10 0 -41 11 -68 25 -70 36 -118
40 -157 16 -29 -18 -53 -64 -41 -76 2 -3 19 -8 36 -11 26 -5 32 -3 32 10 0 9
11 21 24 27 19 9 36 5 94 -20 80 -35 101 -37 143 -16 34 18 53 58 44 92 -4 19
-12 23 -41 23 -31 0 -35 -2 -29 -20z"/>
<path d="M2301 1648 c-63 -14 -125 -79 -140 -147 -6 -29 -11 -145 -11 -261 0
-116 5 -232 11 -261 33 -151 225 -204 330 -91 44 47 59 93 59 185 l0 67 -70 0
-70 0 0 -73 c0 -82 -15 -107 -63 -107 -55 0 -57 9 -57 284 0 183 3 255 12 264
18 18 73 14 91 -6 12 -13 17 -37 17 -80 l0 -62 70 0 70 0 0 58 c0 80 -16 127
-56 172 -48 53 -118 74 -193 58z"/>
<path d="M2791 1648 c-63 -14 -125 -79 -140 -147 -6 -29 -11 -145 -11 -261 0
-257 7 -298 65 -355 54 -54 113 -70 189 -50 60 16 119 72 135 131 14 51 14
496 0 547 -27 98 -133 158 -238 135z m91 -145 c16 -15 18 -36 18 -261 0 -270
-3 -282 -61 -282 -57 0 -59 8 -59 280 0 213 2 251 16 264 20 21 63 20 86 -1z"/>
<path d="M3835 1655 c-5 -2 -22 -6 -37 -9 -37 -8 -98 -63 -114 -103 -8 -18
-14 -59 -14 -91 0 -85 32 -141 138 -243 109 -105 122 -124 122 -176 0 -113
-123 -111 -144 2 -6 32 -10 35 -40 35 -19 0 -47 -3 -63 -6 -30 -6 -30 -7 -22
-51 19 -100 73 -164 156 -182 27 -5 58 -8 69 -6 10 2 31 6 47 10 39 8 104 70
118 112 37 113 0 205 -135 336 -98 97 -124 142 -111 195 9 35 33 62 57 62 28
0 68 -45 68 -75 0 -24 3 -26 28 -21 15 3 44 8 65 12 42 7 41 5 26 59 -14 53
-50 99 -91 117 -33 16 -105 29 -123 23z"/>
<path d="M5791 1648 c-63 -14 -125 -79 -140 -147 -14 -67 -14 -454 0 -521 8
-38 22 -63 55 -98 24 -25 44 -52 44 -60 0 -7 27 -39 60 -72 63 -62 70 -79 44
-104 -23 -23 -34 -20 -47 14 -9 23 -17 30 -39 30 -22 0 -28 -5 -28 -20 0 -36
28 -77 61 -89 59 -21 114 8 125 65 9 46 -2 71 -56 128 l-48 51 30 2 c56 4 96
24 132 63 42 46 56 92 56 183 l0 67 -70 0 -70 0 0 -73 c0 -82 -15 -107 -63
-107 -55 0 -57 9 -57 284 0 183 3 255 12 264 18 18 73 14 91 -6 12 -13 17 -37
17 -80 l0 -62 70 0 70 0 0 58 c0 80 -16 127 -56 172 -48 53 -118 74 -193 58z"/>
<path d="M6821 1648 c-63 -14 -125 -79 -140 -147 -6 -29 -11 -145 -11 -261 0
-257 7 -298 65 -355 54 -54 113 -70 189 -50 60 16 119 72 135 131 14 51 14
496 0 547 -27 98 -133 158 -238 135z m91 -145 c16 -15 18 -36 18 -261 0 -270
-3 -282 -61 -282 -57 0 -59 8 -59 280 0 213 2 251 16 264 20 21 63 20 86 -1z"/>
<path d="M925 1637 c-3 -6 -4 -190 -3 -407 l3 -395 175 0 175 0 3 68 3 67
-111 0 -110 0 0 100 0 99 78 3 77 3 3 68 3 67 -81 0 -80 0 0 100 0 99 108 3
107 3 3 68 3 67 -176 0 c-131 0 -177 -3 -180 -13z"/>
<path d="M1375 1637 c-3 -6 -4 -190 -3 -407 l3 -395 65 0 65 0 3 215 4 215 47
-201 c27 -111 51 -209 54 -218 5 -12 20 -16 56 -16 l50 0 11 58 c7 31 27 127
45 212 l33 155 4 -210 3 -210 65 0 65 0 0 405 0 405 -87 3 c-49 1 -88 1 -88
-1 0 -11 -100 -541 -103 -543 -2 -2 -27 120 -56 271 l-53 275 -89 0 c-63 0
-91 -4 -94 -13z"/>
<path d="M3135 1637 c-3 -6 -4 -190 -3 -407 l3 -395 65 0 65 0 4 230 3 230 77
-230 76 -230 68 -3 67 -3 0 411 0 410 -65 0 -65 0 -2 -247 -3 -247 -74 247
-74 247 -69 0 c-46 0 -70 -4 -73 -13z"/>
<path d="M4170 1580 l0 -70 60 0 60 0 2 -337 3 -338 65 0 65 0 3 338 2 337 60
0 60 0 0 70 0 70 -190 0 -190 0 0 -70z"/>
<path d="M4645 1639 c-3 -8 -4 -192 -3 -409 l3 -395 65 0 65 0 3 153 3 152 33
0 33 0 32 -137 c18 -76 35 -146 37 -155 4 -15 17 -18 69 -18 35 0 66 4 69 8 3
5 -14 85 -39 177 l-43 168 23 32 c51 66 59 249 16 338 -35 71 -79 89 -233 95
-103 4 -129 2 -133 -9z m243 -141 c8 -8 12 -46 12 -104 0 -110 -9 -124 -76
-124 l-44 0 0 120 0 120 48 0 c26 0 53 -5 60 -12z"/>
<path d="M5157 1644 c-12 -12 -8 -608 4 -665 33 -151 225 -204 331 -91 20 22
41 58 47 80 7 26 10 153 9 359 l-3 318 -65 0 -65 0 -3 -324 c-3 -355 -4 -361
-61 -361 -57 0 -56 -9 -61 352 l-5 333 -60 3 c-34 2 -64 0 -68 -4z"/>
<path d="M6275 1640 c-7 -11 -135 -760 -135 -790 0 -18 6 -20 65 -20 36 0 65
1 65 3 0 2 5 30 10 63 6 32 13 74 16 92 5 32 5 32 63 32 l59 0 13 -92 14 -93
59 -3 c32 -2 63 1 68 6 8 8 -115 783 -128 803 -7 12 -161 11 -169 -1z m105
-370 l16 -120 -39 0 c-36 0 -39 2 -34 23 3 12 11 68 18 125 7 56 15 100 17 97
3 -3 13 -59 22 -125z"/>
<path d="M2559 555 c-3 -3 9 -87 27 -188 19 -100 34 -183 34 -184 0 -2 18 -3
39 -3 47 0 42 -13 76 185 15 83 29 160 32 173 4 19 1 22 -25 22 -36 0 -35 3
-58 -147 -10 -62 -20 -110 -23 -107 -3 3 -15 60 -26 127 -19 117 -21 122 -46
125 -13 2 -27 0 -30 -3z"/>
<path d="M2854 545 c-37 -26 -46 -65 -42 -193 3 -111 5 -122 27 -146 33 -35
98 -36 129 -3 20 22 22 33 22 159 0 75 -3 144 -6 153 -8 20 -56 45 -86 45 -13
0 -33 -7 -44 -15z m74 -173 c2 -103 0 -123 -13 -128 -34 -14 -45 14 -45 118 0
105 10 141 38 136 15 -3 17 -20 20 -126z"/>
<path d="M3047 553 c-4 -3 -7 -89 -7 -190 l0 -183 80 0 80 0 0 30 c0 29 -1 30
-50 30 l-50 0 0 160 0 160 -23 0 c-13 0 -27 -3 -30 -7z"/>
<path d="M3247 553 c-4 -3 -7 -17 -7 -30 0 -19 5 -23 30 -23 l30 0 0 -160 0
-160 30 0 29 0 3 158 3 157 28 3 c23 3 27 8 27 33 l0 29 -83 0 c-46 0 -87 -3
-90 -7z"/>
<path d="M3477 554 c-4 -4 -7 -90 -7 -191 l0 -183 86 0 85 0 -3 28 c-3 25 -6
27 -56 30 l-53 3 3 47 c3 46 3 47 41 50 34 3 37 6 37 33 0 27 -2 29 -41 29
l-40 0 3 48 3 47 53 3 c51 3 53 4 50 30 -3 26 -5 27 -78 30 -42 1 -79 0 -83
-4z"/>
<path d="M3737 554 c-4 -4 -7 -90 -7 -191 l0 -183 86 0 85 0 -3 28 c-3 25 -6
27 -56 30 l-53 3 3 47 c3 46 3 47 41 50 34 3 37 6 37 33 0 27 -2 29 -41 29
l-40 0 3 48 3 47 53 3 c51 3 53 4 50 30 -3 26 -5 27 -78 30 -42 1 -79 0 -83
-4z"/>
<path d="M3947 553 c-4 -3 -7 -89 -7 -190 l0 -183 30 0 30 0 0 98 c1 111 9
107 35 -16 17 -80 19 -83 44 -80 24 3 27 9 46 98 l20 95 3 -97 3 -98 29 0 30
0 0 191 0 190 -42 -3 -42 -3 -23 -119 c-12 -65 -24 -120 -26 -122 -2 -2 -14
52 -26 121 l-23 125 -37 0 c-21 0 -41 -3 -44 -7z"/>
<path d="M4307 553 c-4 -3 -7 -89 -7 -190 l0 -183 73 0 c63 0 76 3 95 23 31
33 37 94 14 138 -16 32 -17 40 -6 60 30 55 6 129 -47 148 -35 12 -112 15 -122
4z m107 -69 c21 -20 20 -43 -1 -66 -29 -33 -43 -22 -43 32 0 54 14 65 44 34z
m0 -150 c32 -31 15 -94 -26 -94 -15 0 -18 9 -18 55 0 59 13 70 44 39z"/>
<path d="M4548 554 c-5 -4 -8 -90 -8 -191 l0 -183 30 0 c29 0 29 0 32 67 2 54
6 68 20 71 11 2 18 -6 23 -30 20 -101 24 -108 55 -108 35 0 35 1 14 86 -13 51
-14 71 -5 90 6 14 11 53 11 88 0 89 -17 109 -101 114 -35 2 -67 0 -71 -4z
m100 -63 c9 -5 12 -25 10 -57 -3 -45 -5 -49 -30 -52 -27 -3 -28 -2 -28 51 0
66 12 81 48 58z"/>
<path d="M4787 554 c-4 -4 -7 -90 -7 -191 l0 -183 86 0 85 0 -3 28 c-3 25 -6
27 -56 30 l-53 3 3 47 c3 46 3 47 41 50 34 3 37 6 37 33 0 27 -2 29 -41 29
l-40 0 3 48 3 47 53 3 c51 3 53 4 50 30 -3 26 -5 27 -78 30 -42 1 -79 0 -83
-4z"/>
<path d="M4999 555 c-3 -3 9 -87 27 -188 19 -100 34 -183 34 -184 0 -2 18 -3
39 -3 47 0 42 -13 76 185 15 83 29 160 32 173 4 19 1 22 -25 22 -36 0 -35 3
-58 -147 -10 -62 -20 -110 -23 -107 -3 3 -15 60 -26 127 -19 117 -21 122 -46
125 -13 2 -27 0 -30 -3z"/>
<path d="M5257 554 c-4 -4 -7 -90 -7 -191 l0 -183 86 0 85 0 -3 28 c-3 25 -6
27 -56 30 l-53 3 3 47 c3 46 3 47 41 50 34 3 37 6 37 33 0 27 -2 29 -41 29
l-40 0 3 48 3 47 53 3 c51 3 53 4 50 30 -3 26 -5 27 -78 30 -42 1 -79 0 -83
-4z"/>
</g>
</svg>
