<svg width="48" height="51" viewBox="0 0 48 51" fill="none" xmlns="http://www.w3.org/2000/svg">
<path d="M27.6598 40.2302C27.361 40.2313 27.0658 40.1615 26.7959 40.0259C26.5259 39.8903 26.2881 39.6924 26.0998 39.4468L16.4398 26.7425C16.1457 26.3636 15.9849 25.8884 15.9849 25.398C15.9849 24.9075 16.1457 24.4323 16.4398 24.0534L26.4398 11.3491C26.7793 10.9167 27.2671 10.6448 27.796 10.5932C28.3248 10.5416 28.8514 10.7145 29.2598 11.0739C29.6683 11.4333 29.9251 11.9497 29.9739 12.5096C30.0226 13.0695 29.8593 13.627 29.5198 14.0594L20.5798 25.4085L29.2198 36.7577C29.4644 37.0685 29.6198 37.447 29.6675 37.8483C29.7153 38.2497 29.6534 38.6571 29.4893 39.0224C29.3252 39.3877 29.0657 39.6956 28.7415 39.9096C28.4173 40.1237 28.0419 40.2349 27.6598 40.2302Z" fill="#8C8C8C"/>
</svg>
