<svg width="48" height="51" viewBox="0 0 48 51" fill="none" xmlns="http://www.w3.org/2000/svg">
<path d="M20.0001 40.2303C19.5328 40.2312 19.0799 40.0589 18.7201 39.7433C18.5176 39.5655 18.3502 39.3472 18.2275 39.1009C18.1048 38.8545 18.0292 38.5849 18.005 38.3076C17.9809 38.0303 18.0086 37.7506 18.0867 37.4847C18.1648 37.2187 18.2917 36.9717 18.4601 36.7578L27.4201 25.4086L18.7801 14.0383C18.614 13.8217 18.4899 13.5725 18.415 13.305C18.3402 13.0375 18.316 12.7569 18.3439 12.4795C18.3717 12.202 18.4511 11.9332 18.5775 11.6883C18.7038 11.4435 18.8746 11.2275 19.0801 11.0528C19.287 10.86 19.5294 10.7146 19.7919 10.6257C20.0544 10.5368 20.3315 10.5063 20.6057 10.5361C20.8798 10.5659 21.1452 10.6554 21.3852 10.799C21.6252 10.9426 21.8345 11.1371 22.0001 11.3704L31.6601 24.0746C31.9543 24.4535 32.1151 24.9287 32.1151 25.4192C32.1151 25.9096 31.9543 26.3848 31.6601 26.7637L21.6601 39.468C21.4595 39.7242 21.2046 39.9268 20.9162 40.0592C20.6278 40.1917 20.3139 40.2503 20.0001 40.2303Z" fill="#8C8C8C"/>
</svg>
