<svg width="19" height="22" viewBox="0 0 19 22" fill="none" xmlns="http://www.w3.org/2000/svg">
<path d="M13.4738 14.5898C14.0756 14.2546 14.7644 14.0638 15.498 14.0638H15.5005C15.5751 14.0638 15.6099 13.971 15.5552 13.9195C14.7923 13.2096 13.9208 12.6363 12.9764 12.223C12.9665 12.2178 12.9565 12.2152 12.9466 12.2101C14.4909 11.0473 15.4955 9.15744 15.4955 7.02522C15.4955 3.49302 12.7402 0.631165 9.34072 0.631165C5.94127 0.631165 3.18839 3.49302 3.18839 7.02522C3.18839 9.15744 4.19306 11.0473 5.73984 12.2101C5.72989 12.2152 5.71995 12.2178 5.71 12.223C4.5984 12.7103 3.6012 13.409 2.74326 14.301C1.89027 15.1838 1.21118 16.2303 0.743874 17.3821C0.284099 18.5099 0.035963 19.7184 0.0127575 20.9426C0.0120938 20.9701 0.0167491 20.9975 0.0264494 21.0231C0.0361496 21.0488 0.0506984 21.0721 0.0692385 21.0918C0.0877787 21.1115 0.109935 21.1272 0.134402 21.1379C0.158869 21.1485 0.185151 21.154 0.211701 21.154H1.70129C1.80822 21.154 1.89775 21.0638 1.90023 20.9529C1.94997 18.9625 2.71839 17.0984 4.07866 15.6856C5.4837 14.2237 7.35377 13.4193 9.34321 13.4193C10.7532 13.4193 12.106 13.8241 13.2723 14.5821C13.3023 14.6016 13.3367 14.6126 13.3721 14.6139C13.4074 14.6153 13.4425 14.607 13.4738 14.5898ZM9.34321 11.4598C8.20425 11.4598 7.13245 10.9983 6.32424 10.1604C5.92659 9.74917 5.61134 9.26045 5.39666 8.72238C5.18198 8.18431 5.07211 7.60751 5.07338 7.02522C5.07338 5.84181 5.51852 4.728 6.32424 3.89007C7.12996 3.05214 8.20177 2.59063 9.34321 2.59063C10.4846 2.59063 11.554 3.05214 12.3622 3.89007C12.7598 4.30128 13.0751 4.79 13.2897 5.32807C13.5044 5.86614 13.6143 6.44294 13.613 7.02522C13.613 8.20864 13.1679 9.32245 12.3622 10.1604C11.554 10.9983 10.4822 11.4598 9.34321 11.4598ZM18.4896 17.5961H16.4007V15.4303C16.4007 15.3169 16.3112 15.2241 16.2018 15.2241H14.8092C14.6998 15.2241 14.6102 15.3169 14.6102 15.4303V17.5961H12.5213C12.4119 17.5961 12.3224 17.6889 12.3224 17.8023V19.2461C12.3224 19.3596 12.4119 19.4524 12.5213 19.4524H14.6102V21.6181C14.6102 21.7316 14.6998 21.8244 14.8092 21.8244H16.2018C16.3112 21.8244 16.4007 21.7316 16.4007 21.6181V19.4524H18.4896C18.599 19.4524 18.6886 19.3596 18.6886 19.2461V17.8023C18.6886 17.6889 18.599 17.5961 18.4896 17.5961Z" fill="#5A5A5A"/>
</svg>
